<?xml version="1.0" encoding="UTF-8" standalone="no"?>
<svg
   width="1720"
   height="400"
   viewBox="0 0 455.08331 105.83334"
   version="1.1"
   id="svg5"
   sodipodi:docname="title_vector.svg"
   inkscape:version="1.1 (c68e22c387, 2021-05-23)"
   inkscape:export-filename="C:\ngp\assets\title.png"
   inkscape:export-xdpi="57.599998"
   inkscape:export-ydpi="57.599998"
   xmlns:inkscape="http://www.inkscape.org/namespaces/inkscape"
   xmlns:sodipodi="http://sodipodi.sourceforge.net/DTD/sodipodi-0.dtd"
   xmlns:xlink="http://www.w3.org/1999/xlink"
   xmlns="http://www.w3.org/2000/svg"
   xmlns:svg="http://www.w3.org/2000/svg">
  <sodipodi:namedview
     id="namedview841"
     pagecolor="#505050"
     bordercolor="#ffffff"
     borderopacity="1"
     inkscape:pageshadow="0"
     inkscape:pageopacity="0"
     inkscape:pagecheckerboard="1"
     showgrid="false"
     inkscape:zoom="0.43372424"
     inkscape:cx="621.36255"
     inkscape:cy="220.18599"
     inkscape:window-width="1920"
     inkscape:window-height="1057"
     inkscape:window-x="-8"
     inkscape:window-y="-8"
     inkscape:window-maximized="1"
     inkscape:current-layer="svg5"
     inkscape:snap-global="false"
     height="448px" />
  <defs
     id="defs2">
    <linearGradient
       id="linearGradient16292">
      <stop
         style="stop-color:#9474ca;stop-opacity:1;"
         offset="0"
         id="stop16288" />
      <stop
         style="stop-color:#55a3d9;stop-opacity:1"
         offset="1"
         id="stop16290" />
    </linearGradient>
    <linearGradient
       id="linearGradient828">
      <stop
         style="stop-color:#9474ca;stop-opacity:1;"
         offset="0"
         id="stop824" />
      <stop
         style="stop-color:#55a3d9;stop-opacity:1"
         offset="1"
         id="stop826" />
    </linearGradient>
    <linearGradient
       id="linearGradient834">
      <stop
         style="stop-color:#9474ca;stop-opacity:1;"
         offset="0"
         id="stop830" />
      <stop
         style="stop-color:#55a3d9;stop-opacity:1"
         offset="1"
         id="stop832" />
    </linearGradient>
    <linearGradient
       inkscape:collect="always"
       xlink:href="#linearGradient828"
       id="linearGradient1714"
       gradientUnits="userSpaceOnUse"
       x1="62.379578"
       y1="83.148636"
       x2="55.608002"
       y2="47.757782"
       gradientTransform="matrix(0.93866046,0,0,0.93866046,107.54794,-9.5266646)" />
    <linearGradient
       inkscape:collect="always"
       xlink:href="#linearGradient828"
       id="linearGradient1736"
       gradientUnits="userSpaceOnUse"
       gradientTransform="translate(8.6778162,-24.390973)"
       x1="62.379578"
       y1="83.148636"
       x2="55.608002"
       y2="47.757782" />
    <linearGradient
       inkscape:collect="always"
       xlink:href="#linearGradient828"
       id="linearGradient957"
       x1="311.1106"
       y1="345.32162"
       x2="311.37762"
       y2="253.20888"
       gradientUnits="userSpaceOnUse"
       gradientTransform="matrix(0.22150853,0.01998086,-0.01998086,0.22150853,20.180108,-17.851429)" />
    <linearGradient
       inkscape:collect="always"
       xlink:href="#linearGradient828"
       id="linearGradient2945"
       x1="103.04601"
       y1="89.862755"
       x2="105.64411"
       y2="71.098854"
       gradientUnits="userSpaceOnUse"
       gradientTransform="translate(0.77600145,-24.383108)" />
    <linearGradient
       inkscape:collect="always"
       xlink:href="#linearGradient828"
       id="linearGradient3426"
       gradientUnits="userSpaceOnUse"
       gradientTransform="matrix(0.22150853,0.01998086,-0.01998086,0.22150853,63.531181,-17.851429)"
       x1="311.1106"
       y1="345.32162"
       x2="311.37762"
       y2="253.20888" />
    <linearGradient
       inkscape:collect="always"
       xlink:href="#linearGradient828"
       id="linearGradient3502"
       x1="130.79239"
       y1="83.000809"
       x2="153.52007"
       y2="83.000809"
       gradientUnits="userSpaceOnUse"
       gradientTransform="translate(5.952249,-29.128002)" />
    <linearGradient
       inkscape:collect="always"
       xlink:href="#linearGradient828"
       id="linearGradient8050"
       x1="359.22861"
       y1="692.99634"
       x2="359.97339"
       y2="621.6701"
       gradientUnits="userSpaceOnUse"
       gradientTransform="matrix(0.24835391,0,0,0.24835391,154.62211,-102.34169)" />
    <linearGradient
       inkscape:collect="always"
       xlink:href="#linearGradient828"
       id="linearGradient8428"
       x1="137.13152"
       y1="192.68407"
       x2="137.79759"
       y2="177.58591"
       gradientUnits="userSpaceOnUse"
       gradientTransform="matrix(0.93866046,0,0,0.93866046,145.10039,-109.83645)" />
    <linearGradient
       inkscape:collect="always"
       xlink:href="#linearGradient828"
       id="linearGradient12303"
       gradientUnits="userSpaceOnUse"
       gradientTransform="matrix(0.24835391,0,0,0.24835391,219.3268,-102.34169)"
       x1="359.22861"
       y1="692.99634"
       x2="359.97339"
       y2="621.6701" />
    <linearGradient
       inkscape:collect="always"
       xlink:href="#linearGradient828"
       id="linearGradient12307"
       gradientUnits="userSpaceOnUse"
       gradientTransform="matrix(0.24835391,0,0,0.24835391,283.90753,-102.34169)"
       x1="359.22861"
       y1="692.99634"
       x2="359.97339"
       y2="621.6701" />
    <linearGradient
       inkscape:collect="always"
       xlink:href="#linearGradient828"
       id="linearGradient12382"
       x1="196.59863"
       y1="189.40837"
       x2="197.56468"
       y2="170.53664"
       gradientUnits="userSpaceOnUse"
       gradientTransform="matrix(0.93866046,0,0,0.93866046,156.64658,-107.40287)" />
    <linearGradient
       inkscape:collect="always"
       xlink:href="#linearGradient828"
       id="linearGradient15102"
       x1="262.59357"
       y1="184.35278"
       x2="264.42767"
       y2="169.36324"
       gradientUnits="userSpaceOnUse"
       gradientTransform="matrix(1.0644399,0,0,1.0644399,121.91516,-128.25485)" />
    <linearGradient
       inkscape:collect="always"
       xlink:href="#linearGradient828"
       id="linearGradient16305"
       x1="288.82651"
       y1="177.74298"
       x2="291.77377"
       y2="157.15457"
       gradientUnits="userSpaceOnUse"
       gradientTransform="matrix(0.93866046,0,0,0.93866046,154.06985,-104.82613)" />
  </defs>
  <path
     style="fill:url(#linearGradient1736);fill-opacity:1;stroke:#000000;stroke-width:2.24896;stroke-linecap:butt;stroke-linejoin:miter;stroke-miterlimit:4.67133;stroke-dasharray:none;stroke-opacity:1"
     d="m 77.506658,26.802424 c -11.227339,-1.17722 -18.041787,24.20204 -18.528011,31.01288 -9.037408,-11.19608 -22.88087,-29.7931 -39.178481,-27.26656 13.201401,8.8504 32.07257,25.41552 43.928066,49.988661 C 61.67808,52.156944 70.465748,39.097144 77.506658,26.802424 Z"
     id="path2894" />
  <path
     style="fill:url(#linearGradient1714);fill-opacity:1;stroke:#000000;stroke-width:2.24896;stroke-linecap:butt;stroke-linejoin:miter;stroke-miterlimit:4.67133;stroke-dasharray:none;stroke-opacity:1"
     d="m 182.37565,94.714507 c -5.88215,2.45297 0.89191,-3.71604 -1.8858,-4.64193 -2.65707,-0.88571 -4.62694,4.35931 -5.22218,4.06168 -1.26675,-0.63336 0.65919,-2.63317 -0.23957,-3.71169 -0.37659,-0.45191 -3.79624,2.02372 -3.98227,2.5818 -0.0928,0.27833 -1.12296,0.13695 -2.16082,-0.90094 6.10975,-3.5762 11.83343,-23.646237 10.60418,-39.6069 -1.45865,-18.939089 -8.0765,-30.906306 -7.09045,-35.13699 15.24119,-5.001136 45.62267,-8.2430625 47.14771,10.316104 0.76405,9.298033 -10.91486,17.06602 -17.40865,20.154598 13.06099,0.574648 22.98743,9.218359 23.12606,14.948553 0.40301,16.65834 -22.13012,18.471964 -33.79043,17.700291 0.43424,-2.127249 1.24192,-7.84078 1.32662,-9.681503 6.89819,1.461269 21.30812,-2.244271 20.25776,-7.306223 -1.4048,-6.770229 -19.75026,-6.068449 -19.73395,-6.465869 0.19689,-4.79876 -0.24944,-8.779666 -1.53681,-14.093883 -0.8579,-1.072204 22.70563,-8.460607 17.01003,-17.661216 -3.56057,-5.751726 -25.86986,-2.889882 -25.52279,-1.618213 1.67625,6.141721 4.57313,18.347592 6.11116,26.872995 1.22394,6.784356 -0.71734,41.004116 -7.0098,44.189356 z"
     id="path2896" />
  <path
     id="path866"
     style="fill:url(#linearGradient957);fill-opacity:1;stroke:#000000;stroke-width:2.24896;stroke-linecap:butt;stroke-linejoin:miter;stroke-miterlimit:4.67133;stroke-dasharray:none;stroke-opacity:1"
     d="m 84.670913,29.33334 c -0.350157,-0.0332 -0.697841,-0.02143 -1.034492,0.04276 -1.376736,0.0829 -2.255132,0.637127 -3.068293,1.725613 -3.027538,4.052622 3.528684,7.619953 6.864879,5.62541 4.222671,-2.524514 0.622715,-7.072632 -2.762094,-7.393789 z m 2.160113,11.678787 c -2.847994,-0.271789 -5.981166,2.105978 -7.549634,4.354393 -3.247674,4.655566 -0.212091,16.479748 -0.722926,22.142882 -0.263101,2.916741 0.0017,6.392343 -0.830651,9.208613 -0.240394,0.81343 -1.253645,2.43536 -0.408863,2.51157 0.980211,0.0885 4.310033,-3.26276 4.888702,-3.74566 0.171514,-0.14313 1.256138,3.32404 1.315937,3.5774 0.454608,1.92603 4.311558,-1.42645 4.922534,-2.10442 0.07459,-0.0827 0.469563,1.49824 0.772643,1.52557 0.868414,0.0783 -1.730726,-10.80438 -1.747768,-10.897509 -1.430821,-7.819163 -3.525997,-18.96861 0.90128,-26.131558 -0.496119,-0.249677 -1.013847,-0.390951 -1.541254,-0.441281 z" />
  <path
     style="fill:url(#linearGradient2945);fill-opacity:1;stroke:#000000;stroke-width:2.24896;stroke-linecap:butt;stroke-linejoin:miter;stroke-miterlimit:4.67133;stroke-dasharray:none;stroke-opacity:1"
     d="m 109.36936,42.692434 c 4.52492,9.052857 12.47887,0.285342 6.57816,-5.068408 -8.74529,-7.934643 -23.082067,-1.589891 -23.185287,8.087886 -0.194348,18.221842 18.235917,13.653739 17.362007,21.675535 -1.26838,11.642588 -10.670596,-0.987582 -13.911175,-0.215677 -4.864701,1.158771 -3.485066,9.011075 2.803802,11.107365 7.245233,2.41508 15.477603,0.46458 17.469843,-7.54869 3.57122,-14.364309 -13.55152,-15.579103 -17.038491,-20.057963 -4.318824,-5.547329 6.844921,-14.134553 9.921141,-7.980048 z"
     id="path1300"
     sodipodi:nodetypes="sssssssss" />
  <path
     id="path3424"
     style="fill:url(#linearGradient3426);fill-opacity:1;stroke:#000000;stroke-width:2.24896;stroke-linecap:butt;stroke-linejoin:miter;stroke-miterlimit:4.67133;stroke-dasharray:none;stroke-opacity:1"
     d="m 128.02199,29.33334 c -0.35015,-0.0332 -0.69784,-0.02143 -1.03449,0.04276 -1.37674,0.0829 -2.25513,0.637127 -3.06829,1.725613 -3.02754,4.052622 3.52868,7.619953 6.86488,5.62541 4.22267,-2.524514 0.62271,-7.072632 -2.7621,-7.393789 z m 2.16012,11.678787 c -2.848,-0.271789 -5.98117,2.105978 -7.54964,4.354393 -3.24767,4.655566 -0.21209,16.479748 -0.72292,22.142882 -0.26311,2.916741 0.002,6.392343 -0.83066,9.208613 -0.24039,0.81343 -1.25364,2.43536 -0.40886,2.51157 0.98021,0.0885 4.31003,-3.26276 4.8887,-3.74566 0.17152,-0.14313 1.25614,3.32404 1.31594,3.5774 0.45461,1.92603 4.31156,-1.42645 4.92253,-2.10442 0.0746,-0.0827 0.46957,1.49824 0.77265,1.52557 0.86841,0.0783 -1.73073,-10.80438 -1.74777,-10.897509 -1.43082,-7.819163 -3.526,-18.96861 0.90128,-26.131558 -0.49612,-0.249677 -1.01385,-0.390951 -1.54125,-0.441281 z" />
  <path
     style="fill:url(#linearGradient3502);fill-opacity:1;stroke:#000000;stroke-width:2.24896;stroke-linecap:butt;stroke-linejoin:miter;stroke-miterlimit:4.67133;stroke-dasharray:none;stroke-opacity:1"
     d="m 145.17175,34.496707 c -2.32749,0.104994 -6.67243,-1.213334 -7.54869,0.539194 -0.26939,0.538779 2.0566,1.286389 1.94109,1.4019 -0.55302,0.553017 -1.55902,0.804148 -2.04893,1.294062 -0.13528,0.135276 1.14705,0.544028 0.86271,0.970547 -0.13312,0.199665 -1.93755,1.836806 -1.4019,2.372444 1.19981,1.199814 5.08625,1.079562 7.54869,1.132304 -1.84264,8.819429 -7.49454,27.013828 -1.56366,34.076957 1.72996,2.06023 3.463,3.73891 6.41639,3.23516 6.66308,-1.13649 1.456,-6.55591 0.43135,-10.082896 -1.53892,-7.93488 -0.86212,-18.309579 0.97055,-26.959622 2.59718,-0.06297 6.58678,0.42272 8.4114,-1.401903 0.3487,-0.348691 -3.59111,-0.945314 -2.58812,-1.725414 2.40347,-1.869363 3.80785,-0.397848 1.72542,-2.480286 -0.48294,-0.482936 0.61087,-1.743493 0,-2.04893 -0.57618,-0.288092 -3.72175,-0.110438 -6.09288,-0.323516 0.26373,-2.060666 0.98481,-4.716371 0.16176,-6.362471 -0.23592,-0.471839 -4.83051,-0.669582 -5.39192,-0.647031 -1.34234,0.05392 -1.83326,2.837866 -1.83326,7.009501 z"
     id="path3461"
     sodipodi:nodetypes="cssssscssccsssscssc" />
  <path
     id="path5942"
     style="fill:url(#linearGradient8050);fill-opacity:1;stroke:#000000;stroke-width:2.24896;stroke-linecap:butt;stroke-linejoin:miter;stroke-miterlimit:4.67133;stroke-dasharray:none;stroke-opacity:1"
     d="m 242.48604,42.154694 c -3.59649,-0.0397 -8.11323,1.067914 -13.66675,3.290202 -2.30329,0.921681 0.70512,8.231846 2.73287,7.186742 4.90166,-2.526321 9.58235,-6.461992 14.87989,-0.404544 0.85104,0.973118 0.10138,3.532085 0.10138,4.757525 -5.80015,-3.25977 -15.68025,1.008685 -17.3319,7.997772 -2.19563,9.290946 11.98581,19.249935 20.37569,9.837142 0.71195,2.182273 0.92724,2.447829 1.3087,4.535373 0.009,0.05069 1.35393,-1.253028 1.41688,-1.315983 0.0836,-0.08364 1.65581,1.048502 1.72102,1.113711 0.44983,0.449834 1.86291,-0.851056 2.12556,-1.113711 0.85686,-0.856857 1.0611,0.316553 2.23518,-0.45694 -0.87156,-1.960806 -4.62249,-8.375338 -4.41216,-12.09173 0.88511,-15.639097 -2.29536,-23.234193 -11.48636,-23.335559 z m -0.24594,19.963384 c 1.30346,0.01333 2.53544,0.578112 3.39208,1.940746 2.37784,4.755686 -3.00256,11.078446 -8.40135,6.579438 -3.84579,-3.204822 0.93073,-8.561879 5.00927,-8.520184 z" />
  <path
     style="fill:url(#linearGradient8428);fill-opacity:1;stroke:#000000;stroke-width:2.24896;stroke-linecap:butt;stroke-linejoin:miter;stroke-miterlimit:4.67133;stroke-dasharray:none;stroke-opacity:1"
     d="m 257.45873,45.744414 c -0.30729,13.193736 -0.72357,23.188874 14.32316,23.58512 3.84598,0.101282 7.76287,-3.815148 9.21135,-5.263623 -1.76793,23.083186 -17.53569,20.277393 -24.79981,18.776991 -0.91494,2.06342 -1.22743,4.795245 -0.50612,6.478325 2.06111,4.80926 11.64194,3.52814 15.74029,2.78366 19.49525,-3.5414 19.67855,-27.989987 17.41048,-47.726994 -3.28535,-0.03651 -6.24013,0.228564 -8.70523,0.354279 -0.66949,8.557251 -3.12399,14.5198 -9.91993,14.677439 -6.27395,0.14553 -5.07553,-8.842069 -4.74831,-14.283606 0.0843,-1.401485 -4.0264,0.199503 -8.00588,0.618409 z"
     id="path8387"
     sodipodi:nodetypes="csccssccssc" />
  <path
     id="path12301"
     style="fill:url(#linearGradient12303);fill-opacity:1;stroke:#000000;stroke-width:2.24896;stroke-linecap:butt;stroke-linejoin:miter;stroke-miterlimit:4.67133;stroke-dasharray:none;stroke-opacity:1"
     d="m 307.19073,42.154694 c -3.59649,-0.0397 -8.11323,1.067914 -13.66675,3.290202 -2.30329,0.921681 0.70512,8.231846 2.73287,7.186742 4.90166,-2.526321 9.58235,-6.461992 14.87989,-0.404544 0.85104,0.973118 0.10138,3.532085 0.10138,4.757525 -5.80015,-3.25977 -15.68025,1.008685 -17.3319,7.997772 -2.19563,9.290946 11.98581,19.249935 20.37569,9.837142 0.71195,2.182273 0.92724,2.447829 1.30871,4.535373 0.009,0.05069 1.35392,-1.253028 1.41688,-1.315983 0.0836,-0.08364 1.6558,1.048502 1.72101,1.113711 0.44983,0.449834 1.86291,-0.851056 2.12556,-1.113711 0.85687,-0.856857 1.0611,0.316553 2.23518,-0.45694 -0.87156,-1.960806 -4.62248,-8.375338 -4.41216,-12.09173 0.88511,-15.639097 -2.29536,-23.234193 -11.48636,-23.335559 z m -0.24594,19.963384 c 1.30346,0.01333 2.53544,0.578112 3.39208,1.940746 2.37784,4.755686 -3.00256,11.078446 -8.40135,6.579438 -3.84579,-3.204822 0.93073,-8.561879 5.00927,-8.520184 z" />
  <path
     id="path12305"
     style="fill:url(#linearGradient12307);fill-opacity:1;stroke:#000000;stroke-width:2.24896;stroke-linecap:butt;stroke-linejoin:miter;stroke-miterlimit:4.67133;stroke-dasharray:none;stroke-opacity:1"
     d="m 371.77147,42.154694 c -3.59649,-0.0397 -8.11323,1.067914 -13.66674,3.290202 -2.3033,0.921681 0.70511,8.231846 2.73286,7.186742 4.90166,-2.526321 9.58235,-6.461992 14.87989,-0.404544 0.85104,0.973118 0.10138,3.532085 0.10138,4.757525 -5.80015,-3.25977 -15.68025,1.008685 -17.3319,7.997772 -2.19563,9.290946 11.98581,19.249935 20.37569,9.837142 0.71195,2.182273 0.92724,2.447829 1.30871,4.535373 0.009,0.05069 1.35392,-1.253028 1.41688,-1.315983 0.0836,-0.08364 1.6558,1.048502 1.72101,1.113711 0.44984,0.449834 1.86291,-0.851056 2.12556,-1.113711 0.85687,-0.856857 1.0611,0.316553 2.23519,-0.45694 -0.87157,-1.960806 -4.62249,-8.375338 -4.41217,-12.09173 0.88511,-15.639097 -2.29536,-23.234193 -11.48636,-23.335559 z m -0.24594,19.963384 c 1.30346,0.01333 2.53544,0.578112 3.39208,1.940746 2.37784,4.755686 -3.00256,11.078446 -8.40135,6.579438 -3.84579,-3.204822 0.93073,-8.561879 5.00927,-8.520184 z" />
  <path
     style="fill:url(#linearGradient12382);fill-opacity:1;stroke:#000000;stroke-width:2.24896;stroke-linecap:butt;stroke-linejoin:miter;stroke-miterlimit:4.67133;stroke-dasharray:none;stroke-opacity:1"
     d="m 324.17185,43.015577 c 2.83253,4.625034 2.83427,9.950533 2.83427,15.183566 0,3.04278 -0.10123,6.070514 -0.10123,9.110131 0,6.029692 -3.68682,10.863858 3.74527,11.539506 0.23168,0.02103 1.807,0.217488 2.02448,0 2.26355,-2.263542 -1.31948,-22.445464 7.28811,-24.597362 8.33486,-2.083713 10.26679,15.647761 9.61625,20.852088 -0.10918,0.873527 -0.87311,3.521723 0.10123,3.846499 0.89741,0.299142 5.31475,1.163573 6.07342,0.404891 0.22621,-0.226198 -0.22425,-10.417215 -0.4049,-11.741946 -1.23464,-9.054056 -0.47969,-20.676287 -12.75419,-21.358205 -2.53176,-0.140659 -4.5013,-0.03586 -6.68075,1.417133 -0.32636,0.217562 -1.4099,0.596481 -1.61959,0.911007 -0.10294,0.154419 -0.76182,1.489082 -0.80979,1.417134 -1.1713,-1.756948 -0.9216,-4.333007 -2.22691,-6.073425 -0.32946,-0.439255 -1.80624,0.65006 -2.1257,0.809792 -1.62252,0.811256 -3.36912,-0.925378 -4.95997,-1.720809 z"
     id="path12374" />
  <path
     style="fill:url(#linearGradient15102);fill-opacity:1;stroke:#000000;stroke-width:2.24896;stroke-linecap:butt;stroke-linejoin:miter;stroke-miterlimit:4.67133;stroke-dasharray:none;stroke-opacity:1"
     d="m 392.42619,42.562636 c -0.31671,3.391277 -1.48922,6.842103 -2.8697,9.986522 -3.24638,7.394513 -4.24369,20.67317 6.01229,24.091827 5.4565,1.571449 9.46434,-0.512049 12.99969,-3.501024 0.77734,2.152272 2.73438,5.624602 3.87409,5.567203 2.63994,-0.132952 5.35649,0.01971 6.71505,-2.697513 -3.91673,-2.730374 -6.56915,-7.706223 -6.48547,-11.708324 0.0863,-4.131298 2.05955,-15.381162 2.86967,-19.800864 -1.52134,-0.258685 -5.79142,-0.636674 -7.3464,-1.033089 -0.20478,2.959709 -1.4216,13.111856 -1.88355,14.858215 -0.78854,2.981008 -2.05317,13.876678 -9.12978,9.595185 -6.24609,-3.779019 5.03895,-22.473024 2.36985,-25.142124 -0.42527,-0.425269 -6.2639,-0.216014 -7.12574,-0.216014 z"
     id="path12719"
     sodipodi:nodetypes="csccscsccsssc" />
  <path
     style="fill:url(#linearGradient16305);fill-opacity:1;stroke:#000000;stroke-width:2.24896;stroke-linecap:butt;stroke-linejoin:miter;stroke-miterlimit:4.67133;stroke-dasharray:none;stroke-opacity:1"
     d="m 426.34489,31.096655 c -2.37445,6.81735 -4.32905,13.095477 -6.01237,21.258059 -1.39757,6.776922 -2.39489,17.892286 3.86509,22.761164 1.55729,1.211238 10.22997,3.998036 11.81002,1.503105 7.58872,-11.98276 -9.44201,-4.441919 -7.44389,-19.9697 0.79994,-6.21642 3.89457,-17.55296 7.65863,-25.194755 0.0429,-0.08711 1.19092,-2.482306 0.71575,-2.719881 -0.78274,-0.391384 -3.62403,1.096252 -4.29454,1.431514 -0.0933,0.04665 -2.43716,-1.480428 -3.14934,-1.717815 -0.36646,-0.122148 -1.00597,3.079717 -3.14935,2.648309 z"
     id="path16264"
     sodipodi:nodetypes="cssssssssc" />
</svg>
